<svg width="100" height="100" viewBox="0 0 100 100" fill="none" xmlns="http://www.w3.org/2000/svg">
  <path d="M50 20C35.857 20 24.264 29.43 20.8 42.5C17.336 55.57 23.571 69.43 36.429 76.43C49.286 83.43 64.571 81.43 75 72C85.429 62.57 87.857 47.86 81.429 36.07C74.999 24.29 63.143 18.43 50 20Z" fill="#1BD6CF"/>
  <path d="M50 30C42.857 30 36.429 34.29 33.571 40.71C30.714 47.14 31.714 54.86 36.429 60C41.143 65.14 48.571 66.86 55.714 64.86C62.857 62.86 68.571 57.14 70.714 50C72.857 42.86 71.143 35.14 66.429 30C61.714 24.86 55.714 24.29 50 30Z" fill="#000"/>
  <path d="M56 45C54.286 43.57 51.714 43.57 50 45C48.286 46.43 48.286 48.86 50 50.29L52.857 52.86C54.571 54.29 57.143 54.29 58.857 52.86C60.571 51.43 60.571 49 58.857 47.57L56 45Z" fill="#1BD6CF"/>
</svg>